<svg width="138" height="26" viewBox="0 0 138 26" fill="none" xmlns="http://www.w3.org/2000/svg">
<path d="M22.7829 11.8592C22.6114 10.6867 22.4276 9.5096 22.2685 8.33218C22.1091 7.15313 21.9253 5.9712 21.7663 4.7871C21.0678 5.98978 20.3563 7.20024 19.6716 8.41536C18.9843 9.63498 18.2874 10.8639 17.6015 12.0963C19.3284 12.0182 21.0556 11.9374 22.7829 11.8592ZM15.5313 15.7659C14.7597 17.0099 12.9114 19.6111 12.6158 21.0201C12.5438 21.364 12.5303 21.6075 12.5303 21.7437C12.5303 21.9002 12.5915 22.1881 12.7015 22.5821C11.048 22.7318 9.39422 22.8816 7.75305 23.0357C8.40204 22.1698 8.92724 21.4306 9.33299 20.8176C11.2667 17.8969 13.2555 14.4344 15.2128 10.979C17.1505 7.55843 19.0838 4.13974 20.8719 1.19133C20.7007 0.794974 20.5291 0.401101 20.3575 0C22.9914 0 25.6248 0 28.2588 0C28.6626 2.94895 29.0784 5.89075 29.4831 8.82034C29.8867 11.7393 30.3039 14.6531 30.7205 17.5557C30.8798 18.6267 31.1856 19.5368 31.6392 20.2855C28.7117 20.5043 25.7842 20.7276 22.8689 20.9559C23.0648 20.615 23.2241 20.3361 23.3219 20.1219C23.4198 19.9079 23.4994 19.6747 23.5545 19.4193C23.6095 19.1658 23.6282 18.8295 23.6282 18.4172C23.6282 18.1981 23.6282 18.0464 23.6034 17.9612C23.4688 17.0789 23.3463 16.1944 23.2238 15.3075C20.6515 15.4572 18.0916 15.6091 15.5312 15.7658L15.5313 15.7659ZM43.4601 17.0238C43.8394 17.0033 44.2441 16.9453 44.6727 16.8532C45.1015 16.7611 45.4691 16.616 45.7752 16.418C45.4076 17.4131 45.0403 18.4106 44.6727 19.408C40.8385 19.6476 37.0045 19.9078 33.1706 20.1798C33.3665 19.8433 33.5382 19.4721 33.6972 19.0714C33.8562 18.6711 34.0033 18.1366 34.1507 17.473C34.5055 15.7777 34.8732 14.0818 35.2286 12.3983C35.5834 10.7145 35.9635 9.0352 36.3311 7.35811C36.4167 6.99409 36.4843 6.64033 36.527 6.29861C36.5694 5.95892 36.5882 5.69953 36.5882 5.52447C36.5882 5.38385 36.5699 5.23764 36.5513 5.08676C36.533 4.93852 36.5147 4.82192 36.5026 4.74349C38.4745 4.71154 40.4465 4.67928 42.4189 4.65145C42.2108 4.96262 42.0272 5.31086 41.8676 5.68577C41.7089 6.05904 41.5615 6.57511 41.427 7.23148C41.0471 8.89473 40.6793 10.5599 40.312 12.2301C39.9441 13.9024 39.5771 15.5819 39.2094 17.2613C40.6183 17.1781 42.0394 17.0998 43.4602 17.024L43.4601 17.0238ZM46.0694 19.3226C46.2653 19.0047 46.4328 18.652 46.5957 18.2723C46.7631 17.8827 46.9143 17.3783 47.049 16.7425C47.4043 15.1232 47.7838 13.499 48.1393 11.8867C48.4944 10.2766 48.8742 8.66636 49.2419 7.06071C49.3275 6.70842 49.3892 6.37207 49.4256 6.04489C49.4621 5.71577 49.4867 5.46897 49.4867 5.30099C49.4867 5.16504 49.4806 5.02333 49.462 4.87945C49.444 4.7351 49.4136 4.62611 49.4009 4.55242C51.373 4.52693 53.3453 4.50384 55.3299 4.48083C55.1216 4.78267 54.9337 5.11148 54.7664 5.47604C54.603 5.83206 54.46 6.33282 54.3255 6.96401C53.9579 8.54672 53.5775 10.1363 53.2229 11.721C52.8673 13.3103 52.488 14.9068 52.1325 16.5007C51.9736 17.2193 51.8874 17.7951 51.8874 18.2332C51.8874 18.475 51.9246 18.7284 51.9857 18.9977C50.0134 19.0993 48.0416 19.2143 46.0695 19.3226H46.0694ZM61.0378 11.2096C61.9198 11.1959 62.8143 11.1812 63.7081 11.1682C64.0758 11.1628 64.345 11.083 64.5046 10.9332C64.6636 10.7835 64.7983 10.4516 64.9088 9.9355C65.0555 9.27205 65.2149 8.61093 65.3741 7.9474C65.4597 7.65303 65.4969 7.42714 65.4969 7.26351C65.4969 6.91099 65.2518 6.7364 64.7495 6.7406C63.8556 6.74791 62.9611 6.75677 62.0791 6.76579C61.724 8.24722 61.3807 9.72842 61.0379 11.2095L61.0378 11.2096ZM59.874 16.2085C59.7026 16.9107 59.617 17.4798 59.617 17.9083C59.617 18.1454 59.6538 18.3922 59.7272 18.6567C57.7429 18.7352 55.7705 18.8112 53.7985 18.908C53.9946 18.5969 54.1791 18.2542 54.3375 17.8828C54.4973 17.5079 54.6436 17.0099 54.7782 16.3881C55.1336 14.8054 55.5131 13.2203 55.8686 11.6426C56.2234 10.0671 56.6037 8.49387 56.9708 6.92032C57.057 6.59322 57.1119 6.30646 57.1426 6.05889C57.1728 5.81348 57.1795 5.5844 57.1795 5.37694C57.1795 5.04991 57.1183 4.74333 57.0077 4.46451C60.646 4.43023 64.2839 4.40652 67.9342 4.39564C68.8283 4.39307 69.5026 4.53719 69.9799 4.83568C70.4459 5.12679 70.6905 5.6717 70.6905 6.46418C70.6905 6.84663 70.6232 7.29787 70.4943 7.82801C70.3168 8.56041 70.1515 9.29319 69.9799 10.0254C69.6616 11.3592 69.1594 12.26 68.4854 12.7413C67.8116 13.2227 66.9171 13.4645 65.7908 13.4788C64.0267 13.5012 62.263 13.5361 60.4987 13.5708C60.2906 14.4485 60.0826 15.3283 59.874 16.2085ZM76.7542 10.097C77.7092 10.1134 78.6647 10.134 79.6326 10.1543C79.9631 10.1615 80.1974 10.1209 80.3307 10.0232C80.4546 9.93231 80.5637 9.70976 80.6493 9.37124C80.7718 8.79306 80.9066 8.21496 81.0415 7.63671C81.09 7.47339 81.1025 7.33961 81.1025 7.23335C81.1025 6.96642 80.8698 6.8279 80.4041 6.82106C79.4368 6.80745 78.4811 6.79354 77.5256 6.77978C77.2686 7.88755 77.0115 8.99322 76.7542 10.0968V10.097ZM76.1904 12.4373C75.8965 13.6699 75.6026 14.9046 75.3084 16.1348C75.1494 16.8235 75.0635 17.3807 75.0635 17.8068C75.0635 18.0443 75.1004 18.2952 75.1738 18.5624C73.1895 18.5095 71.2171 18.4866 69.245 18.4659C69.4412 18.1753 69.6254 17.8485 69.7841 17.4938C69.9436 17.1369 70.0902 16.6574 70.2248 16.0539C70.5802 14.5199 70.9594 12.9808 71.3151 11.4423C71.67 9.9058 72.0503 8.36242 72.4177 6.82346C72.5035 6.50118 72.5585 6.21886 72.5891 5.97556C72.6196 5.73536 72.6261 5.50838 72.6261 5.30332C72.6261 4.98065 72.5648 4.67913 72.4546 4.40271C76.1048 4.42105 79.7551 4.44974 83.4176 4.48759C84.422 4.49801 85.1567 4.65923 85.6101 4.96697C86.063 5.27402 86.2961 5.79592 86.2961 6.53554C86.2961 6.83738 86.2476 7.23133 86.1371 7.71047C85.929 8.59741 85.7207 9.48201 85.5246 10.3642C85.304 11.3363 84.9866 11.9604 84.5816 12.2299C84.1661 12.5061 83.6259 12.6286 82.9397 12.6057C83.2339 13.9645 83.5281 15.3237 83.8218 16.6829C83.9076 17.1066 83.9929 17.5239 84.0788 17.9338C84.1644 18.3413 84.2874 18.6731 84.422 18.9172C82.5237 18.8276 80.6249 18.7469 78.7381 18.6755C78.567 17.6388 78.3956 16.6021 78.2362 15.5705C78.077 14.5361 77.9176 13.4995 77.7584 12.4675C77.2314 12.4536 76.7051 12.4467 76.1904 12.4373V12.4373ZM85.8431 18.9866C86.0389 18.6938 86.2115 18.3671 86.3695 18.0075C86.5295 17.6442 86.6761 17.1552 86.8229 16.5423C87.178 14.9711 87.547 13.3934 87.9008 11.82C88.2567 10.2379 88.6356 8.65275 89.0034 7.0656C89.0889 6.71767 89.1565 6.38257 89.1992 6.05422C89.2422 5.72829 89.2607 5.47845 89.2607 5.31249C89.2607 5.17662 89.2423 5.0353 89.224 4.8887C89.2058 4.74683 89.1869 4.63529 89.1751 4.55926C91.1472 4.58445 93.119 4.6143 95.0914 4.6422C94.883 4.94855 94.6996 5.28762 94.5401 5.65576C94.3814 6.02196 94.234 6.52878 94.0991 7.17357C93.7316 8.78606 93.3523 10.3964 92.9966 11.9995C92.642 13.5985 92.2617 15.1969 91.9065 16.7888C91.735 17.5005 91.6616 18.0811 91.6616 18.5256C91.6616 18.7698 91.6861 19.0303 91.7597 19.3112C89.787 19.2028 87.8153 19.09 85.8432 18.9865L85.8431 18.9866ZM98.9867 7.29149C98.6191 8.90849 98.2402 10.5234 97.8842 12.1334C97.5299 13.7367 97.1611 15.3375 96.8063 16.9363C96.5977 17.8598 96.4877 18.468 96.4877 18.7628C96.4877 18.9013 96.5002 19.0184 96.5243 19.1039C96.549 19.1911 96.5977 19.3641 96.696 19.6155C95.6181 19.5486 94.5522 19.4816 93.4864 19.4149C93.7803 19.0945 94.0009 18.7791 94.1357 18.4612C94.2704 18.1478 94.43 17.6021 94.6133 16.8235C94.9565 15.2546 95.3242 13.6835 95.6668 12.1079C96.0103 10.5302 96.3774 8.9451 96.7328 7.35803C96.9164 6.49893 97.0143 5.90225 97.0143 5.55899C97.0143 5.29415 96.953 4.99908 96.8306 4.66739C99.207 4.70672 101.583 4.74567 103.972 4.78516C104.413 6.8813 104.867 8.9863 105.307 11.0943C105.749 13.2085 106.214 15.3328 106.667 17.4616C107.022 15.8397 107.39 14.2136 107.745 12.5848C108.1 10.9541 108.48 9.31636 108.847 7.67394C109.043 6.78211 109.141 6.15807 109.141 5.80322C109.141 5.52447 109.08 5.21572 108.958 4.87253C110.023 4.89118 111.089 4.90961 112.167 4.9302C111.885 5.26865 111.677 5.61651 111.542 5.97563C111.407 6.3353 111.236 6.92281 111.065 7.73605C110.599 9.86888 110.147 11.9959 109.692 14.1168C109.24 16.2272 108.786 18.3322 108.333 20.4308C106.128 20.2671 103.935 20.1152 101.743 19.9563C101.277 17.83 100.812 15.708 100.358 13.5962C99.906 11.4906 99.4394 9.38725 98.9865 7.29149H98.9867ZM130.247 0.000233198C130.125 1.53009 130.002 3.05739 129.88 4.58445C129.561 4.27585 129.23 4.04467 128.899 3.88905C128.569 3.73374 128.128 3.65274 127.564 3.64458C126.548 3.62973 125.531 3.61473 124.527 3.60113C124.037 5.98986 123.547 8.36949 123.069 10.7374C122.592 13.0988 122.101 15.4527 121.623 17.793C121.403 18.8319 121.305 19.6728 121.305 20.3201C121.305 20.6772 121.342 21.062 121.44 21.4698C118.843 21.2578 116.258 21.0457 113.674 20.8407C113.931 20.426 114.156 19.9644 114.372 19.445C114.585 18.93 114.776 18.2239 114.96 17.3441C115.437 15.0592 115.916 12.7671 116.393 10.4631C116.871 8.15332 117.36 5.83548 117.851 3.50886C116.834 3.49526 115.817 3.48041 114.813 3.46735C114.213 3.45965 113.759 3.51127 113.441 3.61481C113.122 3.71827 112.694 3.93973 112.167 4.27593C112.644 2.85723 113.122 1.43106 113.612 0.000310931C119.149 0.000310931 124.698 0.000310931 130.247 0.000310931L130.247 0.000233198Z" fill="black"/>
<path fill-rule="evenodd" clip-rule="evenodd" d="M138 26.0001C124.362 22.4601 98.5729 20.072 69 20.072C39.4272 20.072 13.638 22.4601 0 26.0001C15.7065 23.3357 40.7666 21.6114 69 21.6114C97.2334 21.6114 122.293 23.3357 138 26.0001Z" fill="black"/>
</svg>
